<mxfile host="app.diagrams.net" modified="2023-08-30T11:16:09.101Z" agent="Mozilla/5.0 (Windows NT 10.0; Win64; x64) AppleWebKit/537.36 (KHTML, like Gecko) Chrome/116.0.0.0 Safari/537.36 Edg/116.0.1938.62" etag="beYLM2hEHttl6xeK9eD3" version="21.6.9" type="github">
  <diagram name="第 1 页" id="luyWj2HhIu70-RKtn1D7">
    <mxGraphModel dx="1908" dy="857" grid="1" gridSize="10" guides="1" tooltips="1" connect="1" arrows="1" fold="1" page="0" pageScale="1" pageWidth="827" pageHeight="1169" math="0" shadow="0">
      <root>
        <mxCell id="0" />
        <mxCell id="1" parent="0" />
        <mxCell id="yQOFRyrobwXPusV9XAef-2" value="进入诊断" style="rounded=0;whiteSpace=wrap;html=1;" vertex="1" parent="1">
          <mxGeometry x="50" y="230" width="100" height="40" as="geometry" />
        </mxCell>
        <mxCell id="yQOFRyrobwXPusV9XAef-3" value="" style="endArrow=classic;html=1;rounded=0;exitX=1;exitY=0.5;exitDx=0;exitDy=0;" edge="1" parent="1" source="yQOFRyrobwXPusV9XAef-2">
          <mxGeometry width="50" height="50" relative="1" as="geometry">
            <mxPoint x="230" y="340" as="sourcePoint" />
            <mxPoint x="450" y="250" as="targetPoint" />
          </mxGeometry>
        </mxCell>
        <mxCell id="yQOFRyrobwXPusV9XAef-5" value="taskId：对应调度任务的ID&lt;br&gt;risStudyId：检查号&lt;br&gt;u-token：user token&lt;br&gt;pageType: 1：诊断；2：会诊" style="text;html=1;strokeColor=none;fillColor=none;align=center;verticalAlign=middle;whiteSpace=wrap;rounded=0;" vertex="1" parent="1">
          <mxGeometry x="190" y="200" width="190" height="30" as="geometry" />
        </mxCell>
        <mxCell id="yQOFRyrobwXPusV9XAef-8" value="" style="edgeStyle=orthogonalEdgeStyle;rounded=0;orthogonalLoop=1;jettySize=auto;html=1;" edge="1" parent="1" source="yQOFRyrobwXPusV9XAef-6" target="yQOFRyrobwXPusV9XAef-7">
          <mxGeometry relative="1" as="geometry" />
        </mxCell>
        <mxCell id="yQOFRyrobwXPusV9XAef-6" value="获取参数，进行内部操作" style="rounded=0;whiteSpace=wrap;html=1;" vertex="1" parent="1">
          <mxGeometry x="450" y="230" width="100" height="40" as="geometry" />
        </mxCell>
        <mxCell id="yQOFRyrobwXPusV9XAef-7" value="根据pageType判断当前业务类型" style="rounded=0;whiteSpace=wrap;html=1;" vertex="1" parent="1">
          <mxGeometry x="450" y="320" width="100" height="40" as="geometry" />
        </mxCell>
        <mxCell id="yQOFRyrobwXPusV9XAef-9" value="通过u-token获取当前userName" style="rounded=0;whiteSpace=wrap;html=1;" vertex="1" parent="1">
          <mxGeometry x="200" y="410" width="100" height="40" as="geometry" />
        </mxCell>
        <mxCell id="yQOFRyrobwXPusV9XAef-15" value="" style="edgeStyle=orthogonalEdgeStyle;rounded=0;orthogonalLoop=1;jettySize=auto;html=1;exitX=0.75;exitY=1;exitDx=0;exitDy=0;entryX=0.5;entryY=0;entryDx=0;entryDy=0;" edge="1" parent="1" source="yQOFRyrobwXPusV9XAef-11" target="yQOFRyrobwXPusV9XAef-14">
          <mxGeometry relative="1" as="geometry">
            <mxPoint x="680" y="460" as="sourcePoint" />
            <mxPoint x="780" y="510" as="targetPoint" />
          </mxGeometry>
        </mxCell>
        <mxCell id="yQOFRyrobwXPusV9XAef-11" value="通过taskId获取targetDoctor信息" style="rounded=0;whiteSpace=wrap;html=1;" vertex="1" parent="1">
          <mxGeometry x="740" y="410" width="100" height="40" as="geometry" />
        </mxCell>
        <mxCell id="yQOFRyrobwXPusV9XAef-12" value="&lt;pre style=&quot;background-color:#222222;color:#f7f1ff;font-family:&#39;JetBrains Mono&#39;,monospace;font-size:9.8pt;&quot;&gt;/vps/docInfoOfTask/{taskId}&lt;/pre&gt;" style="text;html=1;strokeColor=none;fillColor=none;align=center;verticalAlign=middle;whiteSpace=wrap;rounded=0;" vertex="1" parent="1">
          <mxGeometry x="850" y="410" width="240" height="35" as="geometry" />
        </mxCell>
        <mxCell id="yQOFRyrobwXPusV9XAef-14" value="在系统中注册doctorInfo" style="rounded=0;whiteSpace=wrap;html=1;" vertex="1" parent="1">
          <mxGeometry x="710" y="500" width="100" height="40" as="geometry" />
        </mxCell>
        <mxCell id="yQOFRyrobwXPusV9XAef-20" value="" style="edgeStyle=orthogonalEdgeStyle;rounded=0;orthogonalLoop=1;jettySize=auto;html=1;" edge="1" parent="1" source="yQOFRyrobwXPusV9XAef-16" target="yQOFRyrobwXPusV9XAef-19">
          <mxGeometry relative="1" as="geometry" />
        </mxCell>
        <mxCell id="yQOFRyrobwXPusV9XAef-16" value="报告签名&lt;br&gt;（userName）" style="rounded=0;whiteSpace=wrap;html=1;" vertex="1" parent="1">
          <mxGeometry x="440" y="660" width="100" height="40" as="geometry" />
        </mxCell>
        <mxCell id="yQOFRyrobwXPusV9XAef-19" value="组装回调参数" style="rounded=0;whiteSpace=wrap;html=1;" vertex="1" parent="1">
          <mxGeometry x="440" y="750" width="100" height="40" as="geometry" />
        </mxCell>
        <mxCell id="yQOFRyrobwXPusV9XAef-27" value="" style="edgeStyle=orthogonalEdgeStyle;rounded=0;orthogonalLoop=1;jettySize=auto;html=1;" edge="1" parent="1" source="yQOFRyrobwXPusV9XAef-22" target="yQOFRyrobwXPusV9XAef-26">
          <mxGeometry relative="1" as="geometry" />
        </mxCell>
        <mxCell id="yQOFRyrobwXPusV9XAef-22" value="回调函数" style="rounded=0;whiteSpace=wrap;html=1;" vertex="1" parent="1">
          <mxGeometry x="40" y="750" width="100" height="40" as="geometry" />
        </mxCell>
        <mxCell id="yQOFRyrobwXPusV9XAef-23" value="" style="endArrow=classic;html=1;rounded=0;exitX=0;exitY=0.5;exitDx=0;exitDy=0;entryX=1;entryY=0.5;entryDx=0;entryDy=0;" edge="1" parent="1" source="yQOFRyrobwXPusV9XAef-19" target="yQOFRyrobwXPusV9XAef-22">
          <mxGeometry width="50" height="50" relative="1" as="geometry">
            <mxPoint x="210" y="790" as="sourcePoint" />
            <mxPoint x="260" y="740" as="targetPoint" />
          </mxGeometry>
        </mxCell>
        <mxCell id="yQOFRyrobwXPusV9XAef-24" value="status:2&lt;br&gt;rptInfo：{填写的情况}&lt;br&gt;&lt;font color=&quot;#cc0000&quot;&gt;rptDoc: {根据targetDoctor}&lt;/font&gt;" style="text;html=1;strokeColor=none;fillColor=none;align=center;verticalAlign=middle;whiteSpace=wrap;rounded=0;" vertex="1" parent="1">
          <mxGeometry x="190" y="730" width="190" height="30" as="geometry" />
        </mxCell>
        <mxCell id="yQOFRyrobwXPusV9XAef-25" value="&lt;pre style=&quot;background-color:#222222;color:#f7f1ff;font-family:&#39;JetBrains Mono&#39;,monospace;font-size:9.8pt;&quot;&gt;&lt;pre style=&quot;font-family: &amp;quot;JetBrains Mono&amp;quot;, monospace; font-size: 9.8pt;&quot;&gt;/vps/diagnose/callback&lt;/pre&gt;&lt;/pre&gt;" style="text;html=1;strokeColor=none;fillColor=none;align=center;verticalAlign=middle;whiteSpace=wrap;rounded=0;" vertex="1" parent="1">
          <mxGeometry x="-140" y="750" width="170" height="35" as="geometry" />
        </mxCell>
        <mxCell id="yQOFRyrobwXPusV9XAef-26" value="保存报告数据" style="rounded=0;whiteSpace=wrap;html=1;" vertex="1" parent="1">
          <mxGeometry x="40" y="830" width="100" height="40" as="geometry" />
        </mxCell>
        <mxCell id="yQOFRyrobwXPusV9XAef-28" value="&lt;font style=&quot;font-size: 11px;&quot;&gt;通过risStudyId查询是否已经出具报告&lt;/font&gt;" style="rounded=0;whiteSpace=wrap;html=1;fontSize=11;" vertex="1" parent="1">
          <mxGeometry x="450" y="410" width="100" height="40" as="geometry" />
        </mxCell>
      </root>
    </mxGraphModel>
  </diagram>
</mxfile>
